<svg xmlns="http://www.w3.org/2000/svg" xmlns:xlink="http://www.w3.org/1999/xlink" preserveAspectRatio="xMidYMid" width="280" height="295" viewBox="0 0 280 295">
  <defs>
    <style>
      .cls-1 {
        fill: #492917;
      }

      .cls-1, .cls-10, .cls-11, .cls-12, .cls-13, .cls-14, .cls-15, .cls-16, .cls-17, .cls-18, .cls-19, .cls-2, .cls-20, .cls-21, .cls-22, .cls-23, .cls-24, .cls-25, .cls-26, .cls-3, .cls-4, .cls-5, .cls-6, .cls-7, .cls-8, .cls-9 {
        fill-rule: evenodd;
      }

      .cls-2 {
        fill: #a57b3f;
      }

      .cls-3 {
        fill: #402613;
      }

      .cls-4 {
        fill: #7b7b7b;
      }

      .cls-5 {
        fill: #717171;
      }

      .cls-6 {
        fill: #a1a1a1;
      }

      .cls-7 {
        fill: #888;
      }

      .cls-8 {
        fill: gray;
      }

      .cls-9 {
        fill: #f7a922;
      }

      .cls-10 {
        fill: #f79020;
      }

      .cls-11 {
        fill: #f8c225;
      }

      .cls-12 {
        fill: #c2c1c0;
      }

      .cls-13 {
        fill: #f50019;
      }

      .cls-14 {
        fill: #fff;
      }

      .cls-15 {
        fill: #fcefbb;
      }

      .cls-16 {
        fill: #feffee;
      }

      .cls-17 {
        fill: #d1b68b;
      }

      .cls-18 {
        fill: #210601;
      }

      .cls-19 {
        fill: #543927;
      }

      .cls-20 {
        fill: #949494;
      }

      .cls-21 {
        fill: #e7c05b;
      }

      .cls-22 {
        fill: #999;
      }

      .cls-23 {
        fill: #a8a8a8;
      }

      .cls-24 {
        fill: #4e4e4e;
      }

      .cls-25 {
        fill: #fbf9f9;
      }

      .cls-26 {
        fill: url(#linear-gradient-1);
      }
    </style>

    <linearGradient id="linear-gradient-1" gradientUnits="userSpaceOnUse" x1="168.375" y1="298.031" x2="168.375" y2="182.188">
      <stop offset="0" stop-color="#fbf9f9"/>
      <stop offset="0.14" stop-color="#fbf9f9"/>
      <stop offset="1" stop-color="#d9d6d7"/>
    </linearGradient>
  </defs>
  <g>
    <path d="M223.618,95.504 C223.284,91.218 223.563,89.642 224.240,88.448 C225.828,85.653 226.210,86.067 225.710,79.910 C229.353,80.916 228.212,86.982 229.667,87.153 C231.223,87.336 232.970,84.375 231.973,80.292 C234.973,80.941 234.155,88.329 235.396,88.618 C236.637,88.911 237.266,84.851 237.010,81.709 C239.583,82.325 238.826,89.776 239.750,90.236 C241.687,91.204 242.095,87.227 241.611,84.290 C245.237,85.510 243.147,94.153 244.405,94.615 C245.665,95.074 246.777,90.829 246.322,88.651 C249.041,89.808 248.581,94.986 247.699,98.479 C246.812,101.974 242.412,106.682 240.209,109.042 " class="cls-1"/>
    <path d="M44.087,71.657 C43.737,68.125 43.282,66.885 42.560,66.014 C40.866,63.973 40.616,64.366 40.130,59.288 C37.319,60.637 39.124,65.401 37.968,65.751 C36.732,66.127 34.885,63.975 35.102,60.511 C32.762,61.476 34.496,67.361 33.530,67.778 C32.566,68.196 31.467,64.988 31.220,62.397 C29.221,63.273 30.914,69.219 30.232,69.727 C28.800,70.796 27.892,67.623 27.860,65.166 C25.093,66.686 28.042,73.406 27.088,73.965 C26.132,74.522 24.614,71.234 24.668,69.397 C22.630,70.734 23.753,74.875 24.975,77.586 C26.201,80.297 30.454,83.482 32.584,85.080 " class="cls-1"/>
    <path d="M247.071,103.171 C246.158,107.027 242.109,111.111 239.455,113.429 C236.800,115.744 224.110,136.053 218.890,142.485 C214.421,147.989 205.036,162.989 200.868,167.816 C200.237,168.931 199.227,170.792 199.376,171.483 C199.579,172.454 197.900,171.336 197.449,169.685 C196.360,169.843 195.966,170.732 195.866,171.580 C195.755,172.515 194.545,169.945 194.330,168.905 C194.099,167.786 193.301,168.582 193.023,169.472 C192.114,168.900 192.764,167.095 191.335,165.448 C187.315,162.688 183.347,159.467 183.347,159.370 C183.347,159.187 183.506,168.384 183.652,173.360 C183.820,179.082 183.807,185.145 183.734,191.230 C183.667,196.883 182.605,204.769 183.414,209.361 C184.806,217.271 192.476,243.508 192.105,247.403 C191.679,251.878 84.363,279.204 82.654,275.158 C76.339,260.207 92.482,185.980 91.014,194.661 C92.065,188.446 94.845,169.660 96.109,160.993 C96.710,156.888 98.438,135.679 99.742,134.560 C100.576,133.838 95.308,134.498 90.672,134.969 C89.365,135.357 88.783,135.842 89.483,136.841 C88.048,137.082 88.235,136.200 86.709,135.924 C85.466,135.696 86.453,138.016 85.024,139.139 C84.585,136.724 83.145,136.554 82.608,137.389 C82.126,138.132 81.317,138.991 80.332,138.753 C81.539,136.969 80.835,133.875 79.260,131.866 C74.721,128.085 68.083,121.409 60.666,112.901 C49.140,99.677 32.679,88.660 30.308,86.337 C27.934,84.020 25.969,79.769 25.892,77.839 C25.562,69.092 38.386,61.098 46.711,68.441 C50.152,71.475 84.749,97.454 87.468,98.123 C90.185,98.796 92.340,97.045 99.612,94.703 C106.880,92.362 115.587,89.741 115.587,89.741 C115.587,89.741 115.214,83.836 115.117,80.460 C115.028,77.085 115.308,59.179 115.308,59.179 C115.308,59.179 113.723,51.960 112.885,48.118 C112.046,44.274 114.861,40.917 119.220,40.192 C124.782,39.262 131.647,42.437 130.688,41.932 C130.688,41.932 133.948,38.932 143.829,37.993 C153.707,37.058 163.764,43.276 163.764,43.276 C163.764,43.276 162.180,41.223 160.126,40.283 C161.350,38.372 164.255,34.582 167.624,34.005 C173.415,33.013 177.685,36.048 178.536,40.097 C179.374,44.081 177.569,48.307 177.569,52.056 C177.569,55.807 184.465,86.742 186.889,94.802 C188.278,99.426 190.893,107.342 193.575,113.506 C194.821,114.601 196.343,115.522 197.668,114.889 C198.711,114.388 197.581,116.708 196.752,117.029 C195.805,117.398 197.824,118.533 199.068,118.936 C200.003,119.237 198.674,120.162 197.412,120.280 C197.313,120.290 197.239,120.321 197.175,120.361 C197.895,121.372 198.578,122.053 199.194,122.270 C202.919,123.585 216.684,110.115 218.455,108.239 C220.225,106.366 220.648,101.110 220.776,96.920 C220.920,92.189 223.822,88.906 224.928,87.891 C227.349,85.673 232.725,85.600 238.767,88.585 C245.386,91.856 248.619,96.609 247.071,103.171 Z" class="cls-2"/>
    <path d="M138.866,45.874 C138.280,46.955 136.790,47.346 135.542,46.597 C134.294,45.845 133.752,44.361 134.336,43.282 C134.923,42.201 136.408,41.936 137.658,42.687 C138.907,43.438 139.450,44.794 138.866,45.874 Z" class="cls-3"/>
    <g>
      <path d="M32.959,32.507 L41.955,32.080 L40.014,34.981 L39.445,34.695 L39.742,35.452 L39.435,36.302 L39.772,36.466 L40.172,35.875 L40.881,35.675 L40.519,35.329 L43.540,30.935 L44.544,30.744 L45.093,29.926 L44.378,28.882 L43.962,29.179 L40.687,22.563 L32.959,32.507 Z" class="cls-4"/>
      <path d="M29.861,29.722 C29.861,29.722 26.872,29.555 25.099,30.464 C23.327,31.373 21.890,33.375 21.890,33.375 L26.026,32.015 L29.861,29.722 Z" class="cls-5"/>
      <path d="M36.825,21.419 C36.825,21.419 37.073,23.507 37.399,23.517 C37.568,23.521 38.696,23.694 39.746,23.859 C36.885,26.948 34.187,29.828 33.936,30.082 C33.431,30.594 24.436,39.417 22.894,41.230 C21.352,43.042 19.157,44.132 19.157,44.132 C19.157,44.132 20.670,40.051 21.673,38.258 C22.672,36.472 29.519,27.614 36.271,19.963 C36.584,20.796 36.825,21.419 36.825,21.419 Z" class="cls-6"/>
      <path d="M37.399,23.517 C37.619,23.523 39.470,23.814 40.652,24.003 C39.587,25.281 38.585,26.465 38.002,27.123 C36.352,28.984 29.542,35.783 29.542,35.783 L28.353,35.691 C28.353,35.691 28.556,35.077 28.534,34.742 C28.512,34.406 27.868,33.358 27.868,33.358 C27.868,33.358 28.150,32.649 28.548,32.195 C28.875,31.822 34.599,25.187 36.969,22.354 C37.073,22.911 37.225,23.511 37.399,23.517 Z" class="cls-7"/>
      <path d="M28.724,25.092 L30.075,15.475 L27.623,18.189 L27.892,18.479 L26.320,19.100 L26.528,17.472 L27.115,17.833 L30.542,13.610 L30.440,12.611 L31.232,11.442 L32.668,12.736 L32.089,13.518 L34.996,18.396 L33.439,21.626 L30.266,24.079 L28.724,25.092 Z" class="cls-8"/>
      <path d="M46.350,25.695 C45.832,26.660 44.866,27.223 43.847,27.284 C43.758,27.740 43.576,28.185 43.270,28.577 C42.234,29.901 40.320,30.135 38.995,29.099 C37.669,28.063 37.435,26.150 38.471,24.826 C39.031,24.109 39.849,23.724 40.691,23.675 C40.748,23.381 40.835,23.090 40.984,22.813 C41.780,21.332 43.626,20.777 45.108,21.572 C46.590,22.368 47.146,24.214 46.350,25.695 Z" class="cls-9"/>
      <path d="M47.301,22.050 C46.868,21.817 46.525,21.488 46.260,21.111 C45.165,21.315 44.546,20.607 44.435,20.479 C44.029,20.711 43.573,20.843 43.107,20.873 C43.018,21.330 42.836,21.774 42.530,22.165 C41.962,22.892 41.131,23.275 40.277,23.312 C41.201,24.390 41.270,26.003 40.362,27.165 C39.326,28.489 37.412,28.723 36.087,27.687 C36.054,27.662 36.031,27.630 35.999,27.603 C35.126,27.814 34.171,27.652 33.408,27.056 C32.083,26.020 31.849,24.107 32.884,22.782 C33.018,22.611 33.168,22.460 33.328,22.325 C33.229,21.548 33.428,20.732 33.949,20.066 C34.773,19.013 36.150,18.663 37.347,19.080 C37.623,18.446 37.876,18.256 38.002,18.132 C37.489,17.249 37.425,16.133 37.944,15.167 C38.602,13.942 39.979,13.364 41.274,13.647 C40.644,15.409 41.332,11.526 44.033,12.131 C44.627,11.300 45.583,10.849 46.562,10.865 C46.575,10.690 46.623,10.515 46.712,10.350 C47.053,9.715 47.844,9.477 48.479,9.818 C50.419,10.860 47.861,12.798 48.777,11.890 C49.593,12.817 49.021,14.038 49.182,15.336 C49.282,16.143 48.931,16.106 50.183,16.687 C53.327,18.148 50.355,23.690 47.301,22.050 Z" class="cls-10"/>
      <path d="M45.336,23.202 C44.904,24.827 43.235,25.793 41.610,25.360 C41.307,25.279 41.036,25.144 40.783,24.986 C40.042,25.688 38.970,26.008 37.910,25.725 C37.637,25.652 37.389,25.537 37.157,25.401 C36.680,25.850 35.993,26.054 35.313,25.873 C34.268,25.595 33.647,24.523 33.925,23.478 C34.073,22.920 34.452,22.489 34.929,22.246 C34.507,21.682 34.330,20.946 34.525,20.212 C34.781,19.251 35.445,18.074 35.608,17.462 C35.917,16.302 37.109,15.612 38.270,15.921 C38.308,15.931 38.340,15.952 38.378,15.964 C38.832,15.293 39.670,14.943 40.498,15.164 C41.543,15.442 42.164,16.514 41.886,17.559 C41.378,19.465 41.586,18.463 42.274,19.391 C42.571,19.379 42.873,19.397 43.176,19.477 C44.802,19.910 45.769,21.578 45.336,23.202 Z" class="cls-11"/>
      <path d="M91.665,4.558 C90.524,5.403 88.642,5.704 89.153,5.325 C89.583,5.006 88.410,6.978 87.112,7.669 C86.006,8.259 84.611,8.196 83.683,7.597 C83.788,9.035 82.912,10.517 81.228,11.419 C80.004,12.075 78.586,12.297 77.275,12.133 C77.027,12.554 75.410,14.610 72.454,13.826 C72.394,13.868 71.317,14.477 70.711,14.661 C70.450,15.154 70.008,15.601 69.397,15.929 C67.807,16.780 65.703,16.505 64.696,15.315 C64.028,14.524 64.864,14.656 63.408,15.189 C62.361,15.573 61.256,15.674 60.228,15.540 C60.980,17.497 59.697,19.705 57.175,20.630 C54.472,21.621 51.370,20.762 50.248,18.712 C50.223,18.666 50.205,18.619 50.182,18.573 C48.678,18.308 47.375,17.525 46.729,16.345 C45.606,14.295 46.887,11.830 49.590,10.838 C48.845,11.112 51.322,8.982 53.527,8.173 C55.153,7.577 56.920,7.654 58.316,8.253 C58.606,8.082 59.731,7.421 61.421,7.358 C61.701,6.289 62.508,5.283 63.774,4.605 C65.816,3.511 68.402,3.615 70.124,4.727 C70.272,4.622 70.427,4.521 70.596,4.430 C72.261,3.539 74.385,3.661 75.734,4.628 C77.550,3.728 79.750,3.742 81.391,4.544 C81.408,4.535 81.421,4.523 81.439,4.514 C82.140,4.140 82.985,4.096 83.677,4.329 C83.300,4.609 84.406,2.903 85.327,2.220 C86.341,1.470 87.825,1.363 88.892,1.899 C89.820,1.390 91.071,1.437 91.835,2.057 C92.681,2.743 92.604,3.862 91.665,4.558 Z" class="cls-12"/>
      <path d="M113.905,48.051 L113.762,48.770 L43.391,25.072 C43.845,26.996 44.533,30.107 44.068,29.437 C40.956,24.940 38.781,22.275 38.781,22.275 C38.781,22.275 43.650,20.029 44.354,20.375 C44.657,20.524 42.784,21.386 42.202,21.725 L42.472,21.816 C43.693,21.701 47.077,21.554 48.055,21.496 C48.300,21.482 46.698,22.157 45.242,22.754 L113.811,45.962 L113.905,48.051 Z" class="cls-13"/>
      <path d="M111.567,47.099 L41.011,23.509 C41.483,24.386 44.682,30.323 44.068,29.437 C43.406,28.480 40.261,23.439 40.261,23.439 L39.651,24.857 L38.881,23.520 L39.153,22.888 L39.129,22.880 L39.161,22.869 L39.491,22.101 C39.491,22.101 40.367,22.174 40.986,22.160 C40.944,22.198 40.902,22.236 40.866,22.278 L41.119,22.190 L41.999,22.489 C43.384,22.201 45.583,21.745 46.390,21.698 C46.655,21.683 44.599,22.311 42.939,22.808 L111.515,46.104 L111.567,47.099 ZM111.572,47.195 L111.567,47.099 L111.575,47.102 L111.572,47.195 ZM41.561,21.981 C41.679,22.106 41.384,22.151 40.986,22.160 C41.187,21.976 41.435,21.847 41.561,21.981 Z" class="cls-14"/>
      <path d="M137.668,45.751 C137.372,46.083 136.941,45.989 136.461,46.008 C136.039,46.025 135.653,46.196 135.347,45.953 C135.124,45.777 134.954,45.541 134.843,45.274 L50.460,19.450 C50.976,21.362 51.743,24.384 51.262,23.735 C50.570,22.800 46.997,18.737 46.997,18.737 L46.402,20.206 L45.945,18.056 L46.128,15.674 C46.128,15.674 47.800,15.263 48.515,15.586 C48.684,15.663 48.689,15.812 48.688,15.950 L49.411,16.172 C50.614,16.018 54.012,15.760 54.992,15.671 C55.237,15.649 53.638,16.384 52.195,17.030 L135.752,42.756 C135.856,42.515 135.949,42.329 136.205,42.319 C136.713,42.299 136.665,43.055 137.632,43.458 C137.999,43.611 137.953,44.129 137.969,44.558 C137.987,45.013 137.950,45.435 137.668,45.751 Z" class="cls-13"/>
      <path d="M137.246,44.529 C137.223,44.794 137.170,45.037 136.983,45.199 C136.787,45.370 136.544,45.283 136.264,45.259 C136.018,45.237 135.781,45.308 135.622,45.145 C135.476,44.996 135.401,44.796 135.371,44.583 L48.653,18.116 C49.513,19.738 51.956,24.404 51.262,23.735 C47.831,20.424 46.700,19.300 46.700,19.300 L45.888,17.988 C45.888,17.988 46.046,16.304 47.128,16.076 C47.794,15.936 50.760,16.425 53.334,15.926 C54.073,15.783 51.531,16.589 49.813,17.124 L135.750,43.728 C136.119,43.484 136.092,43.073 136.388,43.099 C136.684,43.125 136.601,43.561 137.132,43.866 C137.334,43.982 137.268,44.279 137.246,44.529 Z" class="cls-14"/>
      <path d="M41.834,25.456 C41.748,25.780 41.544,26.038 41.282,26.206 C41.425,26.484 41.473,26.811 41.387,27.136 C41.201,27.833 40.486,28.247 39.790,28.061 C39.220,27.909 38.845,27.402 38.827,26.842 C38.349,26.547 38.095,25.970 38.247,25.400 C38.314,25.148 38.646,25.089 38.633,24.771 C38.619,24.453 37.154,25.034 37.565,23.212 C37.442,23.259 37.308,23.279 37.171,23.243 C36.822,23.151 36.615,22.796 36.708,22.449 C36.801,22.103 37.159,21.897 37.507,21.989 C37.763,22.057 37.940,22.268 37.981,22.512 C38.240,22.288 37.907,22.748 38.100,22.021 C38.212,21.601 38.518,21.286 38.896,21.142 C38.736,20.983 38.655,20.754 38.718,20.521 C38.810,20.175 39.168,19.969 39.516,20.061 C39.865,20.153 40.072,20.509 39.979,20.855 C39.948,20.969 39.883,21.059 39.805,21.137 C40.918,21.541 41.198,22.708 40.585,23.009 C40.934,23.101 41.141,23.456 41.048,23.803 C41.482,23.607 42.037,24.717 41.834,25.456 Z" class="cls-15"/>
      <path d="M48.617,18.687 C48.531,19.012 48.327,19.271 48.066,19.441 C48.208,19.718 48.256,20.044 48.170,20.368 C47.984,21.065 47.269,21.479 46.573,21.293 C45.876,21.108 45.462,20.393 45.647,19.697 C45.734,19.371 45.939,19.111 46.201,18.941 C46.017,18.576 45.394,18.023 45.122,17.432 C45.046,17.549 44.943,17.649 44.802,17.699 C44.463,17.821 44.091,17.646 43.970,17.308 C43.850,16.970 44.027,16.598 44.366,16.476 C44.999,16.249 44.493,14.836 45.644,14.425 C46.306,14.188 47.031,14.522 47.291,15.169 C47.691,14.556 48.438,14.471 48.430,15.311 C49.893,16.256 48.407,19.478 48.617,18.687 Z" class="cls-15"/>
    </g>
    <path d="M137.146,43.635 C137.146,43.919 136.801,44.146 136.377,44.146 C135.954,44.146 135.609,43.919 135.609,43.635 C135.609,43.351 135.954,43.124 136.377,43.124 C136.801,43.124 137.146,43.351 137.146,43.635 Z" class="cls-16"/>
    <path d="M118.610,40.143 C122.099,38.768 127.863,38.974 130.602,42.063 C132.843,44.591 135.414,51.174 137.707,55.607 C139.757,59.561 139.562,64.281 139.099,69.861 C138.828,73.137 141.052,80.993 138.069,84.616 C135.086,88.240 130.597,88.140 127.863,86.171 C124.828,83.985 125.554,74.482 123.817,71.735 C122.073,68.981 117.732,64.441 115.409,59.673 C113.081,54.908 110.584,46.255 112.138,44.027 C113.691,41.797 118.610,40.143 118.610,40.143 Z" class="cls-17"/>
    <path d="M128.281,84.317 C129.416,85.784 134.015,85.892 135.661,84.408 C137.429,82.813 138.828,82.076 138.089,73.650 C137.391,65.657 138.886,61.384 136.758,58.590 C134.498,55.607 129.725,49.685 121.753,52.121 C113.108,54.760 118.565,61.495 120.982,64.704 C123.524,68.088 125.657,70.188 126.028,72.250 C126.402,74.313 126.323,81.785 128.281,84.317 Z" class="cls-18"/>
    <path d="M136.639,72.541 C136.639,76.649 135.035,79.982 133.055,79.982 C131.073,79.982 129.470,76.649 129.470,72.541 C129.470,68.432 129.550,65.741 133.055,65.099 C136.554,64.457 136.639,68.432 136.639,72.541 Z" class="cls-19"/>
    <path d="M241.389,102.905 C239.569,106.392 237.292,108.555 229.496,104.674 C223.688,101.786 222.370,97.309 224.190,93.823 C226.008,90.340 228.516,88.140 236.084,92.055 C243.576,95.935 243.207,99.426 241.389,102.905 ZM32.314,81.459 C29.983,78.693 28.910,75.835 34.352,71.111 C39.741,66.432 42.502,68.021 44.831,70.788 C47.168,73.558 48.279,76.216 42.800,81.140 C38.721,84.808 34.650,84.230 32.314,81.459 Z" class="cls-1"/>
    <path d="M114.482,49.590 C116.087,49.610 116.401,48.347 119.891,47.407 C123.129,46.537 125.307,46.919 125.445,44.878 C125.568,43.039 124.860,38.785 119.899,39.276 C116.209,39.646 113.787,40.757 112.550,42.533 C111.285,44.343 111.401,46.098 111.855,47.684 C112.286,49.179 113.224,49.573 114.482,49.590 Z" class="cls-18"/>
    <path d="M136.669,78.599 C136.231,79.395 135.685,80.613 132.656,81.506 C129.457,82.444 128.427,82.064 127.202,81.506 C125.979,80.942 124.566,76.301 125.116,75.925 C125.662,75.551 126.649,77.586 127.763,78.831 C129.557,78.990 133.928,77.039 133.928,77.039 C133.928,77.039 134.124,72.065 134.667,72.065 C136.103,72.065 137.101,77.801 136.669,78.599 ZM129.773,60.278 C128.746,61.213 127.863,56.385 126.836,56.196 C125.812,56.010 120.943,57.388 119.692,58.281 C118.547,59.096 119.587,62.459 119.032,63.283 C118.475,64.109 116.850,59.142 117.308,57.727 C117.818,56.153 120.236,53.843 123.079,53.371 C125.752,52.933 129.115,52.962 130.394,54.232 C130.692,54.523 130.796,59.338 129.773,60.278 Z" class="cls-16"/>
    <g>
      <path d="M240.607,179.231 L246.614,189.236 L242.122,188.809 L242.099,187.983 L241.420,188.789 L240.265,188.961 L240.285,189.448 L241.203,189.540 L241.866,190.226 L242.037,189.599 L248.889,190.340 L249.723,191.368 L250.990,191.490 L251.739,190.030 L251.146,189.739 L256.661,181.923 L240.607,179.231 Z" class="cls-20"/>
      <path d="M267.532,181.743 C267.532,181.743 270.222,182.991 276.607,183.046 C283.331,183.104 274.015,180.583 270.975,180.196 " class="cls-21"/>
      <path d="M260.681,182.500 L264.697,188.622 L267.138,189.139 L268.511,188.651 L270.796,184.154 L268.866,183.790 L268.722,182.902 L260.681,182.500 Z" class="cls-22"/>
      <path d="M259.352,175.880 L268.639,169.905 L273.381,170.730 L272.869,171.175 L268.358,177.614 L259.352,175.880 Z" class="cls-23"/>
      <path d="M238.390,172.305 C238.390,172.305 234.758,169.761 231.811,169.551 C228.865,169.342 225.482,170.805 225.482,170.805 L231.759,172.274 L238.390,172.305 Z" class="cls-24"/>
      <path d="M215.577,171.596 C215.577,171.596 218.260,173.286 221.299,173.764 C224.337,174.241 240.133,178.213 241.039,178.425 C241.945,178.636 261.303,182.610 264.716,183.096 C268.130,183.582 272.745,183.013 272.745,183.013 C272.745,183.013 273.541,180.969 273.375,180.354 C273.209,179.739 270.468,178.882 270.468,178.882 C270.468,178.882 266.918,176.467 253.895,174.172 C240.871,171.876 226.402,170.294 223.750,170.399 C221.097,170.505 215.577,171.596 215.577,171.596 Z" class="cls-23"/>
      <path d="M270.465,178.893 C270.465,178.893 269.322,182.642 269.438,183.096 C269.553,183.551 272.927,183.653 272.927,183.653 L273.646,179.732 L270.465,178.893 Z" class="cls-4"/>
      <path d="M243.238,173.892 L260.993,166.058 L256.352,165.155 L256.211,165.648 L254.473,164.320 L256.414,163.458 L256.406,164.354 L263.369,165.325 L264.406,164.542 L266.228,164.637 L265.755,167.100 L264.504,166.981 L259.668,176.512 L243.238,173.892 Z" class="cls-20"/>
      <path d="M233.333,173.931 C233.333,173.931 232.612,175.354 232.257,175.605 C231.902,175.857 231.089,176.048 231.089,176.048 L231.789,177.427 C231.789,177.427 243.880,180.352 247.045,180.917 C250.210,181.481 260.263,182.890 261.076,182.923 C261.889,182.955 265.736,183.125 265.736,183.125 C265.736,183.125 268.998,183.611 269.353,182.173 C269.707,180.734 269.572,180.202 268.958,179.958 C268.344,179.713 254.890,176.886 253.609,176.810 C252.329,176.735 235.844,174.028 235.074,173.896 C234.304,173.763 233.333,173.931 233.333,173.931 Z" class="cls-20"/>
      <path d="M262.438,177.928 L272.433,174.574 L275.841,175.052 L276.508,175.698 L274.039,178.487 L271.270,178.452 L270.150,179.071 L262.438,177.928 Z" class="cls-22"/>
    </g>
    <g>
      <path d="M0.001,295.004 L0.003,284.782 L10.801,284.780 L10.801,269.352 L19.406,269.352 L19.406,259.786 L22.716,259.786 L22.716,245.003 L33.307,245.003 L46.545,250.221 L46.545,279.787 L48.531,279.787 L48.531,277.178 L52.503,277.178 L52.503,231.089 L67.727,231.089 L67.727,275.439 L69.713,275.439 L69.713,219.784 L81.628,219.784 L81.628,198.914 L83.613,198.914 L83.613,175.435 L86.261,175.435 L86.261,163.261 L98.714,163.261 L98.714,175.435 L101.362,175.435 L101.362,198.914 L103.347,198.914 L103.347,264.134 L106.657,264.134 L106.657,259.786 L112.535,259.786 L112.535,238.046 L127.760,238.046 L127.760,201.523 L133.055,195.436 L133.055,191.087 L136.365,180.652 L160.274,180.652 L160.274,250.221 L166.231,250.221 L166.231,223.263 L170.203,217.175 L170.203,193.696 L192.998,193.696 L192.998,231.959 L205.699,231.959 L205.699,239.785 L209.009,239.785 L213.642,244.133 L213.642,221.524 L226.881,221.524 L226.881,245.003 L230.852,245.003 L230.852,261.525 L234.162,261.525 L234.162,283.564 L237.472,283.564 L237.472,268.482 L245.415,268.482 L245.415,212.828 L255.344,205.001 L266.597,205.001 L266.597,232.828 L271.479,232.828 L271.479,275.027 L276.267,275.025 L276.267,295.000 L0.001,295.004 Z" class="cls-25"/>
      <path d="M263.030,290.567 L263.030,285.988 L265.149,285.988 L265.149,290.567 L263.030,290.567 ZM263.030,280.335 L265.149,280.335 L265.149,284.914 L263.030,284.914 L263.030,280.335 ZM263.030,274.682 L265.149,274.682 L265.149,279.261 L263.030,279.261 L263.030,274.682 ZM263.030,268.988 L265.149,268.988 L265.149,273.567 L263.030,273.567 L263.030,268.988 ZM263.030,263.335 L265.149,263.335 L265.149,267.914 L263.030,267.914 L263.030,263.335 ZM263.030,257.682 L265.149,257.682 L265.149,262.261 L263.030,262.261 L263.030,257.682 ZM263.030,252.029 L265.149,252.029 L265.149,256.608 L263.030,256.608 L263.030,252.029 ZM263.030,246.224 L265.149,246.224 L265.149,250.803 L263.030,250.803 L263.030,246.224 ZM263.030,240.571 L265.149,240.571 L265.149,245.150 L263.030,245.150 L263.030,240.571 ZM263.030,234.918 L265.149,234.918 L265.149,239.497 L263.030,239.497 L263.030,234.918 ZM263.030,229.265 L265.149,229.265 L265.149,233.844 L263.030,233.844 L263.030,229.265 ZM263.030,223.533 L265.149,223.533 L265.149,228.111 L263.030,228.111 L263.030,223.533 ZM263.030,217.880 L265.149,217.880 L265.149,222.458 L263.030,222.458 L263.030,217.880 ZM263.030,212.227 L265.149,212.227 L265.149,216.805 L263.030,216.805 L263.030,212.227 ZM263.030,206.574 L265.149,206.574 L265.149,211.152 L263.030,211.152 L263.030,206.574 ZM259.507,285.988 L261.627,285.988 L261.627,290.567 L259.507,290.567 L259.507,285.988 ZM259.507,280.335 L261.627,280.335 L261.627,284.914 L259.507,284.914 L259.507,280.335 ZM259.507,274.682 L261.627,274.682 L261.627,279.261 L259.507,279.261 L259.507,274.682 ZM259.507,268.988 L261.627,268.988 L261.627,273.567 L259.507,273.567 L259.507,268.988 ZM259.507,263.335 L261.627,263.335 L261.627,267.914 L259.507,267.914 L259.507,263.335 ZM259.507,257.682 L261.627,257.682 L261.627,262.261 L259.507,262.261 L259.507,257.682 ZM259.507,252.029 L261.627,252.029 L261.627,256.608 L259.507,256.608 L259.507,252.029 ZM259.507,246.224 L261.627,246.224 L261.627,250.803 L259.507,250.803 L259.507,246.224 ZM259.507,240.571 L261.627,240.571 L261.627,245.150 L259.507,245.150 L259.507,240.571 ZM259.507,234.918 L261.627,234.918 L261.627,239.497 L259.507,239.497 L259.507,234.918 ZM259.507,229.265 L261.627,229.265 L261.627,233.844 L259.507,233.844 L259.507,229.265 ZM259.507,223.533 L261.627,223.533 L261.627,228.111 L259.507,228.111 L259.507,223.533 ZM259.507,217.880 L261.627,217.880 L261.627,222.458 L259.507,222.458 L259.507,217.880 ZM259.507,212.227 L261.627,212.227 L261.627,216.805 L259.507,216.805 L259.507,212.227 ZM259.507,206.574 L261.627,206.574 L261.627,211.152 L259.507,211.152 L259.507,206.574 ZM255.985,285.988 L258.104,285.988 L258.104,290.567 L255.985,290.567 L255.985,285.988 ZM255.985,280.335 L258.104,280.335 L258.104,284.914 L255.985,284.914 L255.985,280.335 ZM255.985,274.682 L258.104,274.682 L258.104,279.261 L255.985,279.261 L255.985,274.682 ZM255.985,268.988 L258.104,268.988 L258.104,273.567 L255.985,273.567 L255.985,268.988 ZM255.985,263.335 L258.104,263.335 L258.104,267.914 L255.985,267.914 L255.985,263.335 ZM255.985,257.682 L258.104,257.682 L258.104,262.261 L255.985,262.261 L255.985,257.682 ZM255.985,252.029 L258.104,252.029 L258.104,256.608 L255.985,256.608 L255.985,252.029 ZM255.985,246.224 L258.104,246.224 L258.104,250.803 L255.985,250.803 L255.985,246.224 ZM255.985,240.571 L258.104,240.571 L258.104,245.150 L255.985,245.150 L255.985,240.571 ZM255.985,234.918 L258.104,234.918 L258.104,239.497 L255.985,239.497 L255.985,234.918 ZM255.985,229.265 L258.104,229.265 L258.104,233.844 L255.985,233.844 L255.985,229.265 ZM255.985,223.533 L258.104,223.533 L258.104,228.111 L255.985,228.111 L255.985,223.533 ZM255.985,217.880 L258.104,217.880 L258.104,222.458 L255.985,222.458 L255.985,217.880 ZM255.985,212.227 L258.104,212.227 L258.104,216.805 L255.985,216.805 L255.985,212.227 ZM255.985,206.574 L258.104,206.574 L258.104,211.152 L255.985,211.152 L255.985,206.574 ZM187.984,291.109 L190.953,291.109 L190.953,298.031 L187.984,298.031 L187.984,291.109 ZM187.984,282.516 L190.953,282.516 L190.953,289.500 L187.984,289.500 L187.984,282.516 ZM187.984,273.906 L190.953,273.906 L190.953,280.891 L187.984,280.891 L187.984,273.906 ZM187.984,265.406 L190.953,265.406 L190.953,272.266 L187.984,272.266 L187.984,265.406 ZM187.984,256.531 L190.953,256.531 L190.953,263.516 L187.984,263.516 L187.984,256.531 ZM187.984,247.937 L190.953,247.937 L190.953,254.891 L187.984,254.891 L187.984,247.937 ZM187.984,239.391 L190.953,239.391 L190.953,246.281 L187.984,246.281 L187.984,239.391 ZM187.984,230.766 L190.953,230.766 L190.953,237.687 L187.984,237.687 L187.984,230.766 ZM187.984,222.109 L190.953,222.109 L190.953,229.031 L187.984,229.031 L187.984,222.109 ZM187.984,213.516 L190.953,213.516 L190.953,220.438 L187.984,220.438 L187.984,213.516 ZM187.984,204.969 L190.953,204.969 L190.953,211.891 L187.984,211.891 L187.984,204.969 ZM187.984,196.375 L190.953,196.375 L190.953,203.297 L187.984,203.297 L187.984,196.375 ZM182.967,291.048 L185.985,291.048 L185.985,297.996 L182.967,297.996 L182.967,291.048 ZM182.967,282.471 L185.985,282.471 L185.985,289.418 L182.967,289.418 L182.967,282.471 ZM182.967,273.893 L185.985,273.893 L185.985,280.840 L182.967,280.840 L182.967,273.893 ZM182.967,265.315 L185.985,265.315 L185.985,272.262 L182.967,272.262 L182.967,265.315 ZM182.967,256.506 L185.985,256.506 L185.985,263.453 L182.967,263.453 L182.967,256.506 ZM182.967,247.928 L185.985,247.928 L185.985,254.875 L182.967,254.875 L182.967,247.928 ZM182.967,239.350 L185.985,239.350 L185.985,246.297 L182.967,246.297 L182.967,239.350 ZM182.967,230.772 L185.985,230.772 L185.985,237.719 L182.967,237.719 L182.967,230.772 ZM182.967,222.073 L185.985,222.073 L185.985,229.020 L182.967,229.020 L182.967,222.073 ZM182.967,213.495 L185.985,213.495 L185.985,220.442 L182.967,220.442 L182.967,213.495 ZM182.967,204.917 L185.985,204.917 L185.985,211.864 L182.967,211.864 L182.967,204.917 ZM182.967,196.339 L185.985,196.339 L185.985,203.286 L182.967,203.286 L182.967,196.339 ZM177.952,291.048 L180.970,291.048 L180.970,297.996 L177.952,297.996 L177.952,291.048 ZM177.952,282.471 L180.970,282.471 L180.970,289.418 L177.952,289.418 L177.952,282.471 ZM177.952,273.893 L180.970,273.893 L180.970,280.840 L177.952,280.840 L177.952,273.893 ZM177.952,265.315 L180.970,265.315 L180.970,272.262 L177.952,272.262 L177.952,265.315 ZM177.952,256.506 L180.970,256.506 L180.970,263.453 L177.952,263.453 L177.952,256.506 ZM177.952,247.928 L180.970,247.928 L180.970,254.875 L177.952,254.875 L177.952,247.928 ZM177.952,239.350 L180.970,239.350 L180.970,246.297 L177.952,246.297 L177.952,239.350 ZM177.952,230.772 L180.970,230.772 L180.970,237.719 L177.952,237.719 L177.952,230.772 ZM177.952,222.073 L180.970,222.073 L180.970,229.020 L177.952,229.020 L177.952,222.073 ZM177.952,213.495 L180.970,213.495 L180.970,220.442 L177.952,220.442 L177.952,213.495 ZM177.952,204.917 L180.970,204.917 L180.970,211.864 L177.952,211.864 L177.952,204.917 ZM177.952,196.339 L180.970,196.339 L180.970,203.286 L177.952,203.286 L177.952,196.339 ZM172.937,291.048 L175.954,291.048 L175.954,297.996 L172.937,297.996 L172.937,291.048 ZM172.937,282.471 L175.954,282.471 L175.954,289.418 L172.937,289.418 L172.937,282.471 ZM172.937,273.893 L175.954,273.893 L175.954,280.840 L172.937,280.840 L172.937,273.893 ZM172.937,265.315 L175.954,265.315 L175.954,272.262 L172.937,272.262 L172.937,265.315 ZM172.937,256.506 L175.954,256.506 L175.954,263.453 L172.937,263.453 L172.937,256.506 ZM172.937,247.928 L175.954,247.928 L175.954,254.875 L172.937,254.875 L172.937,247.928 ZM172.937,239.350 L175.954,239.350 L175.954,246.297 L172.937,246.297 L172.937,239.350 ZM172.937,230.772 L175.954,230.772 L175.954,237.719 L172.937,237.719 L172.937,230.772 ZM172.937,222.073 L175.954,222.073 L175.954,229.020 L172.937,229.020 L172.937,222.073 ZM172.937,213.495 L175.954,213.495 L175.954,220.442 L172.937,220.442 L172.937,213.495 ZM172.937,204.917 L175.954,204.917 L175.954,211.864 L172.937,211.864 L172.937,204.917 ZM172.937,196.339 L175.954,196.339 L175.954,203.286 L172.937,203.286 L172.937,196.339 ZM156.297,288.406 L159.094,288.406 L159.094,295.000 L156.297,295.000 L156.297,288.406 ZM156.297,280.250 L159.094,280.250 L159.094,286.875 L156.297,286.875 L156.297,280.250 ZM156.297,272.234 L159.094,272.234 L159.094,278.828 L156.297,278.828 L156.297,272.234 ZM156.297,264.062 L159.094,264.062 L159.094,270.703 L156.297,270.703 L156.297,264.062 ZM156.297,255.906 L159.094,255.906 L159.094,262.531 L156.297,262.531 L156.297,255.906 ZM156.297,247.812 L159.094,247.812 L159.094,254.344 L156.297,254.344 L156.297,247.812 ZM156.297,239.375 L159.094,239.375 L159.094,246.016 L156.297,246.016 L156.297,239.375 ZM156.297,231.203 L159.094,231.203 L159.094,237.812 L156.297,237.812 L156.297,231.203 ZM156.297,223.094 L159.094,223.094 L159.094,229.641 L156.297,229.641 L156.297,223.094 ZM156.297,214.891 L159.094,214.891 L159.094,221.469 L156.297,221.469 L156.297,214.891 ZM156.297,206.656 L159.094,206.656 L159.094,213.234 L156.297,213.234 L156.297,206.656 ZM156.297,198.484 L159.094,198.484 L159.094,205.063 L156.297,205.063 L156.297,198.484 ZM156.297,190.375 L159.094,190.375 L159.094,196.953 L156.297,196.953 L156.297,190.375 ZM156.297,182.203 L159.094,182.203 L159.094,188.781 L156.297,188.781 L156.297,182.203 ZM151.719,288.406 L154.531,288.406 L154.531,295.000 L151.719,295.000 L151.719,288.406 ZM151.719,280.250 L154.531,280.250 L154.531,286.875 L151.719,286.875 L151.719,280.250 ZM151.719,272.234 L154.531,272.234 L154.531,278.828 L151.719,278.828 L151.719,272.234 ZM151.719,264.062 L154.531,264.062 L154.531,270.703 L151.719,270.703 L151.719,264.062 ZM151.719,255.906 L154.531,255.906 L154.531,262.531 L151.719,262.531 L151.719,255.906 ZM151.719,247.812 L154.531,247.812 L154.531,254.344 L151.719,254.344 L151.719,247.812 ZM151.719,239.375 L154.531,239.375 L154.531,246.016 L151.719,246.016 L151.719,239.375 ZM151.719,231.203 L154.531,231.203 L154.531,237.812 L151.719,237.812 L151.719,231.203 ZM151.719,223.094 L154.531,223.094 L154.531,229.641 L151.719,229.641 L151.719,223.094 ZM151.719,214.891 L154.531,214.891 L154.531,221.469 L151.719,221.469 L151.719,214.891 ZM151.719,206.656 L154.531,206.656 L154.531,213.234 L151.719,213.234 L151.719,206.656 ZM151.719,198.484 L154.531,198.484 L154.531,205.063 L151.719,205.063 L151.719,198.484 ZM151.719,190.375 L154.531,190.375 L154.531,196.953 L151.719,196.953 L151.719,190.375 ZM151.719,182.203 L154.531,182.203 L154.531,188.781 L151.719,188.781 L151.719,182.203 ZM147.010,288.367 L149.846,288.367 L149.846,294.970 L147.010,294.970 L147.010,288.367 ZM147.010,280.214 L149.846,280.214 L149.846,286.817 L147.010,286.817 L147.010,280.214 ZM147.010,272.190 L149.846,272.190 L149.846,278.793 L147.010,278.793 L147.010,272.190 ZM147.010,264.037 L149.846,264.037 L149.846,270.640 L147.010,270.640 L147.010,264.037 ZM147.010,255.884 L149.846,255.884 L149.846,262.487 L147.010,262.487 L147.010,255.884 ZM147.010,247.731 L149.846,247.731 L149.846,254.334 L147.010,254.334 L147.010,247.731 ZM147.010,239.358 L149.846,239.358 L149.846,245.961 L147.010,245.961 L147.010,239.358 ZM147.010,231.205 L149.846,231.205 L149.846,237.808 L147.010,237.808 L147.010,231.205 ZM147.010,223.052 L149.846,223.052 L149.846,229.655 L147.010,229.655 L147.010,223.052 ZM147.010,214.899 L149.846,214.899 L149.846,221.502 L147.010,221.502 L147.010,214.899 ZM147.010,206.631 L149.846,206.631 L149.846,213.234 L147.010,213.234 L147.010,206.631 ZM147.010,198.478 L149.846,198.478 L149.846,205.081 L147.010,205.081 L147.010,198.478 ZM147.010,190.325 L149.846,190.325 L149.846,196.928 L147.010,196.928 L147.010,190.325 ZM147.010,182.172 L149.846,182.172 L149.846,188.775 L147.010,188.775 L147.010,182.172 ZM142.298,288.367 L145.133,288.367 L145.133,294.970 L142.298,294.970 L142.298,288.367 ZM142.298,280.214 L145.133,280.214 L145.133,286.817 L142.298,286.817 L142.298,280.214 ZM142.298,272.190 L145.133,272.190 L145.133,278.793 L142.298,278.793 L142.298,272.190 ZM142.298,264.037 L145.133,264.037 L145.133,270.640 L142.298,270.640 L142.298,264.037 ZM142.298,255.884 L145.133,255.884 L145.133,262.487 L142.298,262.487 L142.298,255.884 ZM142.298,247.731 L145.133,247.731 L145.133,254.334 L142.298,254.334 L142.298,247.731 ZM142.298,239.358 L145.133,239.358 L145.133,245.961 L142.298,245.961 L142.298,239.358 ZM142.298,231.205 L145.133,231.205 L145.133,237.808 L142.298,237.808 L142.298,231.205 ZM142.298,223.052 L145.133,223.052 L145.133,229.655 L142.298,229.655 L142.298,223.052 ZM142.298,214.899 L145.133,214.899 L145.133,221.502 L142.298,221.502 L142.298,214.899 ZM142.298,206.631 L145.133,206.631 L145.133,213.234 L142.298,213.234 L142.298,206.631 ZM142.298,198.478 L145.133,198.478 L145.133,205.081 L142.298,205.081 L142.298,198.478 ZM142.298,190.325 L145.133,190.325 L145.133,196.928 L142.298,196.928 L142.298,190.325 ZM142.298,182.172 L145.133,182.172 L145.133,188.775 L142.298,188.775 L142.298,182.172 ZM137.585,288.367 L140.421,288.367 L140.421,294.970 L137.585,294.970 L137.585,288.367 ZM137.585,280.214 L140.421,280.214 L140.421,286.817 L137.585,286.817 L137.585,280.214 ZM137.585,272.190 L140.421,272.190 L140.421,278.793 L137.585,278.793 L137.585,272.190 ZM137.585,264.037 L140.421,264.037 L140.421,270.640 L137.585,270.640 L137.585,264.037 ZM137.585,255.884 L140.421,255.884 L140.421,262.487 L137.585,262.487 L137.585,255.884 ZM137.585,247.731 L140.421,247.731 L140.421,254.334 L137.585,254.334 L137.585,247.731 ZM137.585,239.358 L140.421,239.358 L140.421,245.961 L137.585,245.961 L137.585,239.358 ZM137.585,231.205 L140.421,231.205 L140.421,237.808 L137.585,237.808 L137.585,231.205 ZM137.585,223.052 L140.421,223.052 L140.421,229.655 L137.585,229.655 L137.585,223.052 ZM137.585,214.899 L140.421,214.899 L140.421,221.502 L137.585,221.502 L137.585,214.899 ZM137.585,206.631 L140.421,206.631 L140.421,213.234 L137.585,213.234 L137.585,206.631 ZM137.585,198.478 L140.421,198.478 L140.421,205.081 L137.585,205.081 L137.585,198.478 ZM137.585,190.325 L140.421,190.325 L140.421,196.928 L137.585,196.928 L137.585,190.325 ZM137.585,182.172 L140.421,182.172 L140.421,188.775 L137.585,188.775 L137.585,182.172 ZM90.297,287.469 L93.094,287.469 L93.094,294.000 L90.297,294.000 L90.297,287.469 ZM90.297,279.031 L93.094,279.031 L93.094,285.672 L90.297,285.672 L90.297,279.031 ZM90.297,270.859 L93.094,270.859 L93.094,277.469 L90.297,277.469 L90.297,270.859 ZM90.297,262.750 L93.094,262.750 L93.094,269.297 L90.297,269.297 L90.297,262.750 ZM90.297,254.547 L93.094,254.547 L93.094,261.125 L90.297,261.125 L90.297,254.547 ZM90.297,246.312 L93.094,246.312 L93.094,252.891 L90.297,252.891 L90.297,246.312 ZM90.297,238.141 L93.094,238.141 L93.094,244.719 L90.297,244.719 L90.297,238.141 ZM90.297,230.031 L93.094,230.031 L93.094,236.609 L90.297,236.609 L90.297,230.031 ZM90.297,221.859 L93.094,221.859 L93.094,228.438 L90.297,228.438 L90.297,221.859 ZM85.719,287.469 L88.531,287.469 L88.531,294.000 L85.719,294.000 L85.719,287.469 ZM85.719,279.031 L88.531,279.031 L88.531,285.672 L85.719,285.672 L85.719,279.031 ZM85.719,270.859 L88.531,270.859 L88.531,277.469 L85.719,277.469 L85.719,270.859 ZM85.719,262.750 L88.531,262.750 L88.531,269.297 L85.719,269.297 L85.719,262.750 ZM85.719,254.547 L88.531,254.547 L88.531,261.125 L85.719,261.125 L85.719,254.547 ZM85.719,246.312 L88.531,246.312 L88.531,252.891 L85.719,252.891 L85.719,246.312 ZM85.719,238.141 L88.531,238.141 L88.531,244.719 L85.719,244.719 L85.719,238.141 ZM85.719,230.031 L88.531,230.031 L88.531,236.609 L85.719,236.609 L85.719,230.031 ZM85.719,221.859 L88.531,221.859 L88.531,228.438 L85.719,228.438 L85.719,221.859 ZM81.010,287.397 L83.846,287.397 L83.846,294.000 L81.010,294.000 L81.010,287.397 ZM81.010,279.025 L83.846,279.025 L83.846,285.628 L81.010,285.628 L81.010,279.025 ZM81.010,270.872 L83.846,270.872 L83.846,277.475 L81.010,277.475 L81.010,270.872 ZM81.010,262.719 L83.846,262.719 L83.846,269.322 L81.010,269.322 L81.010,262.719 ZM81.010,254.566 L83.846,254.566 L83.846,261.169 L81.010,261.169 L81.010,254.566 ZM81.010,246.298 L83.846,246.298 L83.846,252.901 L81.010,252.901 L81.010,246.298 ZM81.010,238.145 L83.846,238.145 L83.846,244.748 L81.010,244.748 L81.010,238.145 ZM81.010,229.992 L83.846,229.992 L83.846,236.595 L81.010,236.595 L81.010,229.992 ZM81.010,221.839 L83.846,221.839 L83.846,228.442 L81.010,228.442 L81.010,221.839 ZM76.298,287.397 L79.133,287.397 L79.133,294.000 L76.298,294.000 L76.298,287.397 ZM76.298,279.025 L79.133,279.025 L79.133,285.628 L76.298,285.628 L76.298,279.025 ZM76.298,270.872 L79.133,270.872 L79.133,277.475 L76.298,277.475 L76.298,270.872 ZM76.298,262.719 L79.133,262.719 L79.133,269.322 L76.298,269.322 L76.298,262.719 ZM76.298,254.566 L79.133,254.566 L79.133,261.169 L76.298,261.169 L76.298,254.566 ZM76.298,246.298 L79.133,246.298 L79.133,252.901 L76.298,252.901 L76.298,246.298 ZM76.298,238.145 L79.133,238.145 L79.133,244.748 L76.298,244.748 L76.298,238.145 ZM76.298,229.992 L79.133,229.992 L79.133,236.595 L76.298,236.595 L76.298,229.992 ZM76.298,221.839 L79.133,221.839 L79.133,228.442 L76.298,228.442 L76.298,221.839 ZM71.585,287.397 L74.421,287.397 L74.421,294.000 L71.585,294.000 L71.585,287.397 ZM71.585,279.025 L74.421,279.025 L74.421,285.628 L71.585,285.628 L71.585,279.025 ZM71.585,270.872 L74.421,270.872 L74.421,277.475 L71.585,277.475 L71.585,270.872 ZM71.585,262.719 L74.421,262.719 L74.421,269.322 L71.585,269.322 L71.585,262.719 ZM71.585,254.566 L74.421,254.566 L74.421,261.169 L71.585,261.169 L71.585,254.566 ZM71.585,246.298 L74.421,246.298 L74.421,252.901 L71.585,252.901 L71.585,246.298 ZM71.585,238.145 L74.421,238.145 L74.421,244.748 L71.585,244.748 L71.585,238.145 ZM71.585,229.992 L74.421,229.992 L74.421,236.595 L71.585,236.595 L71.585,229.992 ZM71.585,221.839 L74.421,221.839 L74.421,228.442 L71.585,228.442 L71.585,221.839 Z" class="cls-26"/>
    </g>
  </g>
</svg>
