<svg xmlns="http://www.w3.org/2000/svg" xmlns:xlink="http://www.w3.org/1999/xlink" preserveAspectRatio="xMidYMid" width="41" height="32" viewBox="0 0 41 32">
  <defs>
    <style>
      .cls-1 {
        fill: #dff4f6;
        fill-rule: evenodd;
      }
    </style>
  </defs>
  <path d="M27.817,0.968 C26.401,0.968 23.715,2.921 19.760,6.828 C16.342,3.410 13.046,1.701 9.872,1.701 C5.673,1.701 2.621,4.264 0.717,9.391 C0.717,10.514 2.304,12.956 5.478,16.715 C13.323,20.264 17.595,23.071 18.295,25.138 L17.563,29.167 L19.028,31.364 C20.867,31.364 22.576,30.143 24.155,27.702 L23.788,25.138 C23.788,24.650 24.643,23.551 26.352,21.842 C35.873,16.276 40.634,11.393 40.634,7.194 C40.634,2.555 37.338,0.236 30.746,0.236 L27.817,0.968 ZM22.323,12.321 C24.634,6.950 27.442,4.264 30.746,4.264 L32.944,4.264 C34.831,4.264 36.052,4.875 36.606,6.095 L36.606,6.828 C36.606,9.693 31.235,14.453 20.492,21.110 L17.563,18.546 C9.750,14.803 5.844,11.507 5.844,8.659 C6.332,7.682 7.065,6.950 8.041,6.461 L9.872,6.461 C11.581,6.461 13.290,7.194 14.999,8.659 L19.760,13.419 L22.323,12.321 Z" class="cls-1"/>
</svg>
