<svg xmlns="http://www.w3.org/2000/svg" xmlns:xlink="http://www.w3.org/1999/xlink" preserveAspectRatio="xMidYMid" width="280" height="295" viewBox="0 0 280 295">
  <defs>
    <style>
      .cls-1 {
        fill: #715942;
        opacity: 0.1;
      }

      .cls-1, .cls-2, .cls-3, .cls-4, .cls-5, .cls-6 {
        fill-rule: evenodd;
      }

      .cls-2 {
        fill: #222;
      }

      .cls-3 {
        fill: #aa7a3b;
      }

      .cls-4 {
        fill: #d4b589;
      }

      .cls-5 {
        fill: #936427;
      }

      .cls-6 {
        fill: #9f9f9f;
      }
    </style>
  </defs>
  <g>
    <path d="M135.123,276.286 C182.466,276.286 220.844,280.309 220.844,285.271 C220.844,290.233 182.466,294.255 135.123,294.255 C87.780,294.255 49.402,290.233 49.402,285.271 C49.402,280.309 87.780,276.286 135.123,276.286 Z" class="cls-1"/>
    <path d="M196.877,284.048 C196.877,284.048 197.216,284.689 197.537,284.826 C198.308,285.154 199.520,284.764 199.520,284.764 L204.257,283.176 L200.811,282.445 C200.811,282.445 198.521,282.206 197.832,282.797 C197.144,283.389 196.877,284.048 196.877,284.048 Z" class="cls-2"/>
    <path d="M195.307,281.691 C195.307,281.691 195.647,282.333 195.968,282.469 C196.739,282.797 197.951,282.407 197.951,282.407 L202.687,280.819 L199.241,280.088 C199.241,280.088 196.951,279.849 196.263,280.441 C195.574,281.033 195.307,281.691 195.307,281.691 Z" class="cls-2"/>
    <path d="M234.001,187.333 C233.214,188.155 230.985,190.119 229.792,190.987 C230.151,192.287 230.299,193.543 230.193,194.646 C229.737,199.382 228.743,206.253 222.411,213.471 C220.104,216.101 217.368,217.941 214.637,219.255 C214.262,220.149 214.077,221.105 211.733,222.469 C209.454,223.796 203.351,223.548 200.971,222.626 L193.185,248.941 L188.414,275.071 C188.414,275.071 188.347,278.929 194.388,278.560 C197.329,278.381 199.533,279.931 200.737,282.672 C201.940,285.413 199.782,286.582 196.671,286.873 C193.560,287.163 182.067,287.984 179.910,287.569 C177.753,287.154 175.825,284.334 174.125,280.512 C172.425,276.690 168.260,254.221 168.260,254.221 L157.573,276.850 C157.698,277.608 158.198,278.167 159.339,278.335 C162.830,278.845 166.122,279.293 168.861,281.443 C171.600,283.594 168.975,286.700 165.780,287.318 C162.584,287.936 158.527,287.728 154.768,287.433 C151.193,287.152 145.594,287.303 143.249,286.164 C143.016,288.564 141.797,285.106 141.797,285.679 C141.797,285.899 141.514,284.805 141.328,282.970 C141.159,281.932 141.133,280.776 141.173,279.671 C141.178,278.717 141.229,277.695 141.346,276.633 C141.313,273.979 139.589,270.997 138.801,268.765 C137.578,265.303 137.072,253.618 136.588,249.746 C136.422,248.413 136.735,247.265 137.282,246.172 C137.269,246.055 137.260,245.991 137.260,245.991 C137.260,245.991 127.427,249.315 122.282,249.398 C117.934,249.469 110.712,249.881 108.573,250.007 C108.740,254.022 108.727,258.215 108.952,260.537 C109.631,267.557 108.676,269.890 109.401,272.559 C110.389,276.200 123.087,273.289 126.823,280.598 C128.361,283.606 127.366,284.280 125.191,285.140 C123.128,285.956 118.080,286.355 114.653,286.326 C112.002,286.438 109.028,286.512 106.096,286.564 C99.133,286.822 90.244,287.095 89.120,286.321 C88.982,286.226 88.862,286.101 88.751,285.964 C87.648,285.431 87.774,284.807 87.774,284.807 C87.774,284.807 75.805,284.983 72.402,284.859 C69.000,284.735 67.348,279.183 66.393,276.150 C65.438,273.117 63.166,265.297 62.046,259.731 C60.926,254.164 61.336,247.403 54.947,241.090 C48.558,234.776 46.566,225.138 46.690,214.960 C46.724,212.142 47.782,208.700 49.528,205.045 C48.808,205.055 48.131,204.901 47.587,204.428 C45.944,202.998 46.240,200.031 48.314,197.333 C50.001,195.139 57.331,191.021 60.015,189.557 C63.691,185.373 67.700,181.714 71.458,179.316 C82.660,172.170 107.097,170.468 115.519,171.756 C123.077,172.912 148.366,177.912 155.336,178.476 C154.746,177.925 154.410,177.229 154.677,177.424 C155.094,177.733 157.653,177.860 157.369,177.243 C157.084,176.628 157.352,175.795 157.837,176.160 C158.485,176.645 159.876,177.320 159.861,176.794 C159.847,176.333 161.159,175.268 161.109,175.870 C160.996,177.249 164.650,177.750 165.521,177.960 C170.426,177.788 176.683,177.636 182.394,177.484 C182.812,178.823 183.575,179.917 183.796,181.677 C183.505,179.361 182.608,177.464 183.530,175.586 C184.452,173.707 184.219,173.618 186.208,173.213 C188.197,172.808 188.652,172.293 191.090,173.997 C192.855,175.231 194.421,175.987 195.907,177.428 C197.214,178.697 197.866,179.411 197.785,180.026 C197.865,179.412 197.830,178.394 196.647,177.015 C205.552,176.757 213.261,178.021 220.020,180.248 C220.847,180.520 221.633,180.877 222.376,181.303 C224.584,180.687 227.912,179.792 229.266,179.603 C232.098,179.209 235.405,180.157 236.121,181.606 C237.345,184.083 234.819,186.480 234.001,187.333 Z" class="cls-3"/>
    <path d="M218.374,216.202 C218.382,216.191 220.637,211.594 219.532,207.109 C218.425,202.614 213.710,200.690 209.404,201.617 C204.895,202.587 202.827,207.424 200.281,213.833 C199.046,216.943 198.870,222.393 201.494,223.090 C202.711,223.414 209.410,224.155 211.394,222.807 C215.623,219.935 217.105,217.930 218.374,216.202 Z" class="cls-4"/>
    <path d="M60.008,240.388 C60.008,240.388 70.353,251.593 71.958,256.787 C73.472,261.690 75.059,265.499 75.982,267.413 C77.996,271.585 79.146,272.826 81.565,277.202 C83.575,280.841 85.159,284.663 84.471,284.738 L88.265,284.782 C88.265,284.782 86.914,279.241 85.722,277.006 C84.726,275.141 80.981,270.209 80.562,267.830 C80.142,265.450 78.738,257.766 76.009,254.651 C73.279,251.536 60.008,240.388 60.008,240.388 Z" class="cls-5"/>
    <path d="M173.641,244.721 C171.135,247.765 168.378,254.261 168.353,254.621 C168.328,254.980 172.382,272.501 172.571,274.791 C173.980,254.291 185.937,233.117 184.651,234.202 C179.655,238.418 176.147,241.678 173.641,244.721 Z" class="cls-5"/>
    <path d="M221.188,199.451 C222.489,199.451 223.544,200.419 223.544,201.613 C223.544,202.807 222.489,203.774 221.188,203.774 C219.886,203.774 218.832,202.807 218.832,201.613 C218.832,200.419 219.886,199.451 221.188,199.451 Z" class="cls-2"/>
    <path d="M221.522,200.102 C221.777,200.102 221.983,200.309 221.983,200.563 C221.983,200.818 221.777,201.025 221.522,201.025 C221.267,201.025 221.060,200.818 221.060,200.563 C221.060,200.309 221.267,200.102 221.522,200.102 Z" class="cls-6"/>
    <path d="M202.352,197.026 C203.695,197.026 204.783,198.024 204.783,199.256 C204.783,200.488 203.695,201.487 202.352,201.487 C201.010,201.487 199.921,200.488 199.921,199.256 C199.921,198.024 201.010,197.026 202.352,197.026 Z" class="cls-2"/>
    <path d="M214.653,219.926 L210.617,218.916 L204.245,218.160 L204.522,219.690 L210.870,220.696 L214.073,221.061 L214.653,219.926 Z" class="cls-2"/>
    <path d="M218.359,209.005 C218.359,209.005 212.268,207.578 210.174,207.729 C208.079,207.881 208.650,209.604 209.468,210.672 C210.285,211.739 212.351,213.904 213.591,213.770 C214.832,213.635 216.997,213.374 217.568,212.620 C218.139,211.866 219.656,209.623 218.359,209.005 Z" class="cls-2"/>
    <path d="M168.409,282.993 C168.409,282.993 167.136,283.019 166.492,282.483 C166.223,282.260 166.082,281.548 166.082,281.548 C166.082,281.548 166.527,280.994 167.356,280.625 C168.185,280.256 170.310,281.143 170.310,281.143 L173.402,282.834 L168.409,282.993 ZM170.393,284.370 L173.220,286.474 L168.254,285.938 C168.254,285.938 166.990,285.786 166.426,285.166 C166.191,284.908 166.150,284.184 166.150,284.184 C166.150,284.184 166.667,283.697 167.540,283.446 C168.412,283.196 170.393,284.370 170.393,284.370 Z" class="cls-2"/>
    <path d="M202.458,198.055 C202.713,198.055 202.920,198.264 202.920,198.522 C202.920,198.780 202.713,198.989 202.458,198.989 C202.203,198.989 201.996,198.780 201.996,198.522 C201.996,198.264 202.203,198.055 202.458,198.055 Z" class="cls-6"/>
    <path d="M124.879,283.120 C124.879,283.120 125.020,283.831 125.289,284.054 C125.933,284.590 127.206,284.564 127.206,284.564 L132.199,284.405 L129.107,282.714 C129.107,282.714 126.982,281.827 126.153,282.196 C125.324,282.565 124.879,283.120 124.879,283.120 Z" class="cls-2"/>
  </g>
</svg>
