<svg xmlns="http://www.w3.org/2000/svg" xmlns:xlink="http://www.w3.org/1999/xlink" preserveAspectRatio="xMidYMid" width="280" height="295" viewBox="0 0 280 295">
  <defs>
    <style>
      .cls-1 {
        fill: #6f5943;
        opacity: 0.1;
      }

      .cls-1, .cls-2, .cls-3, .cls-4, .cls-5, .cls-6, .cls-7, .cls-8 {
        fill-rule: evenodd;
      }

      .cls-2 {
        fill: #aa7a3b;
      }

      .cls-3 {
        fill: #8f652c;
      }

      .cls-4 {
        fill: #d0b68b;
      }

      .cls-5 {
        fill: #222;
      }

      .cls-6 {
        fill: #3c3c3c;
      }

      .cls-7 {
        fill: #111;
      }

      .cls-8 {
        fill: #999;
      }
    </style>
  </defs>
  <g>
    <path d="M135.070,280.332 C156.720,280.332 174.270,283.139 174.270,286.602 C174.270,290.064 156.720,292.871 135.070,292.871 C113.420,292.871 95.869,290.064 95.869,286.602 C95.869,283.139 113.420,280.332 135.070,280.332 Z" class="cls-1"/>
    <path d="M166.129,287.108 C164.427,287.297 161.249,287.353 159.214,287.461 C157.180,287.570 155.811,285.855 154.566,285.007 C153.321,284.159 151.132,279.613 149.527,276.998 C148.750,275.731 148.008,270.797 147.472,266.327 C146.273,269.451 145.002,272.385 144.097,274.101 C143.577,275.087 142.496,276.369 141.108,277.687 C141.492,278.804 141.901,279.831 142.315,280.612 C142.933,280.763 143.579,280.974 144.270,281.411 C144.722,281.697 145.073,282.012 145.344,282.349 C146.239,282.370 147.162,282.323 148.745,282.928 C150.901,283.754 152.376,285.584 152.498,287.076 C152.619,288.567 148.836,288.927 147.134,289.116 C145.431,289.305 144.291,289.835 141.657,289.470 C139.640,289.190 138.254,288.456 137.009,287.607 C137.000,287.601 136.986,287.583 136.976,287.575 C136.707,287.575 136.452,287.576 136.238,287.577 C133.918,287.594 129.816,287.620 128.457,284.329 C127.624,284.346 126.777,284.318 125.938,284.260 C126.542,284.835 126.985,285.456 127.209,286.021 C127.821,287.571 125.010,289.033 122.220,289.218 C118.323,289.477 111.960,288.141 110.230,287.820 C108.500,287.499 107.968,287.214 106.850,284.453 C104.456,278.537 103.304,275.304 104.575,268.965 C105.526,264.223 109.108,260.465 111.442,259.721 C111.982,258.666 112.726,257.565 113.752,256.452 C116.900,253.035 118.196,250.850 122.162,246.502 C126.127,242.155 130.201,235.492 133.084,232.980 C133.829,232.331 134.593,231.490 135.318,230.599 C135.508,229.809 135.745,229.089 136.016,228.453 C135.504,227.813 134.889,226.935 134.431,225.917 C133.713,224.325 132.980,220.878 134.814,219.855 C137.414,218.404 139.301,218.875 141.090,220.525 C141.746,221.130 142.236,221.563 142.611,221.887 C144.363,221.069 146.401,220.555 148.705,220.574 C151.862,220.599 153.745,220.585 155.552,221.250 C157.235,220.259 159.289,219.268 160.390,219.560 C162.077,220.007 163.807,221.556 162.899,224.271 C162.629,225.076 161.750,226.341 160.881,227.472 C160.971,228.137 161.022,228.803 161.104,229.462 C161.391,231.772 160.927,233.798 160.697,235.747 C160.467,237.696 159.318,238.100 159.318,238.894 C159.318,239.689 160.775,243.076 158.107,246.269 C157.054,247.528 155.976,248.109 154.885,248.336 C155.103,250.612 155.379,253.041 155.662,254.282 C156.281,257.004 158.241,268.627 158.850,271.224 C159.460,273.821 159.278,280.700 161.085,281.342 C162.891,281.985 164.860,281.258 167.135,281.667 C169.410,282.076 170.173,283.694 170.294,285.186 C170.416,286.677 167.832,286.919 166.129,287.108 Z" class="cls-2"/>
    <path d="M147.051,266.640 C145.909,268.830 144.349,273.613 141.336,277.329 C140.782,275.417 140.085,272.846 139.693,270.747 C148.266,261.848 147.918,259.845 148.864,256.824 C149.899,253.520 151.074,249.513 151.074,249.513 C151.074,249.513 148.909,263.078 147.051,266.640 ZM132.498,280.847 C132.532,281.357 132.686,281.844 132.885,282.304 C125.193,283.683 125.243,283.771 125.243,283.771 C125.243,283.771 124.542,282.604 121.641,282.331 C118.741,282.058 116.655,281.484 116.655,281.484 C116.655,281.484 116.701,279.823 118.023,278.322 C119.345,276.821 119.285,275.880 119.285,275.880 C119.279,276.101 126.244,276.665 131.683,275.647 C132.065,277.127 132.382,279.154 132.498,280.847 Z" class="cls-3"/>
    <path d="M137.024,286.409 C137.000,285.937 134.328,280.400 133.956,278.153 C133.585,275.907 132.687,272.810 131.851,271.213 C131.016,269.616 129.111,267.713 128.969,266.390 C128.827,265.067 126.200,255.525 126.200,255.525 C126.200,255.525 127.235,268.192 127.563,268.644 C127.890,269.096 130.225,271.943 130.410,273.161 C130.596,274.379 132.833,282.046 133.639,282.997 C134.445,283.949 137.048,286.880 137.024,286.409 Z" class="cls-3"/>
    <path d="M148.580,247.841 C148.580,247.841 146.182,244.983 147.611,241.632 C149.040,238.281 151.701,236.258 153.913,236.155 C156.126,236.053 158.413,237.708 159.285,239.076 C160.157,240.442 160.098,244.677 158.559,246.074 C157.021,247.472 153.863,248.882 152.046,248.942 C150.229,249.002 148.580,247.841 148.580,247.841 Z" class="cls-4"/>
    <path d="M151.563,289.578 L149.620,288.026 C149.620,288.026 149.023,287.383 149.310,286.913 C149.598,286.443 149.980,286.136 149.980,286.136 C149.980,286.136 150.468,286.062 150.931,286.186 C151.394,286.309 151.704,287.676 151.704,287.676 L151.563,289.578 ZM147.412,289.712 L146.248,288.029 C146.248,288.029 145.879,287.501 146.166,287.030 C146.454,286.560 146.855,286.520 146.855,286.520 C146.855,286.520 147.205,286.486 147.668,286.610 C148.131,286.734 148.100,287.856 148.100,287.856 L147.412,289.712 ZM144.343,289.712 L143.179,288.029 C143.179,288.029 142.894,287.593 143.182,287.123 C143.302,286.927 143.833,286.554 143.833,286.554 C143.833,286.554 144.362,286.458 144.825,286.582 C145.288,286.705 145.032,287.856 145.032,287.856 L144.343,289.712 Z" class="cls-5"/>
    <path d="M126.484,289.578 L124.541,288.026 C124.541,288.026 123.943,287.383 124.231,286.913 C124.519,286.443 124.901,286.136 124.901,286.136 C124.901,286.136 125.389,286.062 125.852,286.186 C126.315,286.309 126.625,287.676 126.625,287.676 L126.484,289.578 ZM122.332,289.712 L121.169,288.029 C121.169,288.029 120.799,287.501 121.087,287.030 C121.374,286.560 121.776,286.520 121.776,286.520 C121.776,286.520 122.126,286.486 122.589,286.610 C123.052,286.734 123.021,287.856 123.021,287.856 L122.332,289.712 ZM119.264,289.712 L118.099,288.029 C118.099,288.029 117.815,287.593 118.102,287.123 C118.222,286.927 118.754,286.554 118.754,286.554 C118.754,286.554 119.283,286.458 119.746,286.582 C120.209,286.705 119.952,287.856 119.952,287.856 L119.264,289.712 Z" class="cls-5"/>
    <path d="M170.056,287.528 L168.518,286.169 C168.518,286.169 168.032,285.743 168.197,285.219 C168.363,284.694 168.743,284.561 168.743,284.561 C168.743,284.561 169.075,284.445 169.554,284.456 C170.034,284.466 170.275,285.564 170.275,285.564 L170.056,287.528 ZM165.538,286.894 C165.538,286.894 165.157,286.538 165.322,286.014 C165.391,285.796 165.817,285.307 165.817,285.307 C165.817,285.307 166.307,285.089 166.787,285.100 C167.266,285.111 167.296,286.288 167.296,286.288 L167.075,288.253 L165.538,286.894 Z" class="cls-5"/>
    <g>
      <path d="M153.293,245.890 C154.519,245.987 156.720,246.318 156.692,246.673 C156.663,247.028 154.416,247.273 153.189,247.176 C151.962,247.079 150.991,246.713 151.020,246.358 C151.048,246.002 152.066,245.793 153.293,245.890 Z" class="cls-6"/>
      <path d="M153.296,240.538 C153.777,240.196 157.867,239.947 158.907,240.459 C160.052,241.023 159.184,242.421 158.917,242.729 C158.540,243.165 157.424,243.458 156.290,243.391 C155.156,243.324 155.153,242.806 154.462,242.429 C153.770,242.053 152.816,240.881 153.296,240.538 Z" class="cls-7"/>
      <path d="M146.085,234.796 C145.752,233.799 146.315,232.703 147.342,232.349 C148.370,231.994 149.473,232.515 149.806,233.513 C150.139,234.511 149.576,235.607 148.548,235.961 C147.521,236.316 146.418,235.794 146.085,234.796 Z" class="cls-7"/>
      <path d="M156.408,234.950 C156.101,234.031 156.620,233.020 157.567,232.694 C158.515,232.367 159.531,232.848 159.838,233.767 C160.146,234.687 159.626,235.697 158.679,236.024 C157.732,236.351 156.715,235.870 156.408,234.950 Z" class="cls-7"/>
      <path d="M158.566,233.126 C158.823,233.131 159.025,233.340 159.019,233.593 C159.012,233.846 158.798,234.047 158.542,234.042 C158.285,234.037 158.083,233.828 158.089,233.575 C158.096,233.322 158.310,233.121 158.566,233.126 Z" class="cls-8"/>
      <path d="M148.544,233.052 C148.800,233.071 148.987,233.290 148.962,233.542 C148.937,233.794 148.709,233.984 148.453,233.965 C148.198,233.947 148.010,233.728 148.036,233.475 C148.061,233.223 148.288,233.034 148.544,233.052 Z" class="cls-8"/>
    </g>
  </g>
</svg>
